<svg width="24" height="19" viewBox="0 0 24 19" fill="none" xmlns="http://www.w3.org/2000/svg">
<path d="M21.9219 0.789062C19.7734 0.90625 15.5156 1.33594 12.8984 2.9375C12.7031 3.05469 12.5859 3.25 12.5859 3.44531V17.6641C12.5859 18.1328 13.0938 18.4062 13.5234 18.2109C16.2188 16.8438 20.125 16.4531 22.0391 16.375C22.7031 16.3359 23.2109 15.7891 23.2109 15.1641V1.96094C23.25 1.29688 22.625 0.75 21.9219 0.789062ZM11.0625 2.9375C8.44531 1.33594 4.1875 0.90625 2.03906 0.789062C1.33594 0.75 0.75 1.29688 0.75 1.96094V15.1641C0.75 15.7891 1.25781 16.3359 1.92188 16.375C3.83594 16.4531 7.74219 16.8438 10.4375 18.2109C10.8672 18.4062 11.375 18.1328 11.375 17.6641V3.44531C11.375 3.25 11.2578 3.05469 11.0625 2.9375Z" fill="white"/>
</svg>
